<?xml version="1.0" encoding="utf-8"?>
<!-- Generator: Adobe Illustrator 26.0.1, SVG Export Plug-In . SVG Version: 6.00 Build 0)  -->
<svg version="1.1" xmlns="http://www.w3.org/2000/svg" xmlns:xlink="http://www.w3.org/1999/xlink" x="0px" y="0px"
	 viewBox="0 0 1500 1500" style="enable-background:new 0 0 1500 1500;" xml:space="preserve">
<style type="text/css">
	path{fill:rgba(250,138,250,0.404);}
</style>
<g>
	<path d="M325.2,680.5c-0.4,0.9-0.4,2-0.6,2.9c-1.5,6.3-5.7,10.2-11.1,13.2c-4,2.2-8.4,3-12.9,3.3c-5.6,0.4-10.7,2.4-15.3,5.7
		c-10.6,7.8-17.8,17.9-20.8,30.8c-0.3,1.3-1,2.2-2.4,2.3c-1.5,0.1-2.6-0.4-3.3-1.8c-1.4-2.7-1.4-5.5-1-8.4c1.3-8.1,4-15.8,7.1-23.4
		c0.2-0.6,0.5-1.2,0.7-1.8c0.2-0.9-0.1-1.3-1.2-1.3c-5.6-0.1-11.2,0.5-16.8,0c-3-0.2-6-0.1-9-0.1c-2.7,0.1-3.2,1.2-2.1,3.7
		c1.2,2.8,2.1,5.7,3.3,8.4c1.5,3.3,3.1,6.5,4.5,9.8c1.9,4.6,4,9.2,6.1,13.8c2.3,4.8,4.3,9.7,6.5,14.5c1.9,4,3.5,8.3,5.5,12.3
		c3.2,6.3,5.8,12.9,8.9,19.3c3.3,6.9,6.5,13.9,9.6,20.9c2.4,5.4,5.1,10.6,7.5,16c5.9,13,11.9,25.9,17.7,38.9
		c2.6,5.8,5,11.8,7.5,17.7c0.7,1.6,0.6,3-1,4h-0.8c-2.4-1.6-3.7-4.2-5.3-6.4c-8.2-11.1-16.1-22.5-23.8-33.9
		c-5.7-8.5-11.6-17-17.3-25.5c-6.3-9.4-12.5-18.9-19-28.1c-5.4-7.7-10.5-15.6-16-23.2c-5.6-7.9-10.9-16-16.6-23.8
		c-2.3-3.2-4.8-6.3-7.1-9.6c-5.3-7.3-10.7-14.5-13.8-23c-0.8-2.1-1.2-4.7-0.7-7.1c0.2-1.4-0.4-2.2-1.8-2.6c-2.3-0.6-4.6-0.8-6.9-1.2
		c-5.5-1-11-1.9-16.4-3c-19-4-37.7-9.2-55.8-16c-10-3.8-19.9-7.9-29-13.8c-2.7-1.8-5.3-3.8-7.2-6.5v-1.1c1.7-2.4,2.6-2.4,5.2-0.9
		c6.8,3.9,14.3,6.2,21.7,8.5c9.4,2.8,19,4.7,28.6,6.3c7.3,1.2,14.7,2,22.1,2.5c9.2,0.6,18.5,1.1,27.7,1.2c7.2,0.1,14.4,0.2,21.6-0.3
		c5.3-0.3,10.6-0.4,15.9-0.6c5.2-0.2,10.3-0.9,15.4-1.4c3.7-0.4,7.4-0.9,11-1.3c3-0.3,6.1-0.9,9.1-1.2c3.8-0.4,7.4-1.4,11.2-1.9
		c4.3-0.5,8.6-1.9,12.9-3c3.3-0.9,6.7-1.7,10-2.7c3.8-1.2,7.6-2.3,11.4-3.3c6-1.5,11.9-0.9,17.4,2.1c0.6,0.3,0.9,0.9,1.3,1.4
		c0.4,0.6,0.8,1.2,1.7,1.3c1.4,0.2,1.9,1.7,2.4,2.7c1.5,2.9,3.4,5.6,3.9,8.9C325.8,676.7,326,678.6,325.2,680.5z"/>
	<path d="M468.7,843v1.9c-1.9,3.3-4.5,4.4-8.3,4.1c-10.2-0.9-18.6-5.7-26.8-11.4c-4.7-3.3-9.2-7-13.3-11c-5.9-5.8-11.9-11.6-17.1-18
		c-1.5-1.9-3.3-3.6-5.3-5.3c0.5,2.6,1,5.1,1.6,7.7c2,9.4,4,18.7,6,28.1c1.5,7,2.6,14.1,2.9,21.3c0.2,4.6-0.1,9.2-2.8,13.2
		c-3.3,4.9-9.8,6-15.7,3c-5-2.5-8.9-6.2-12.7-10.1c-5.3-5.4-9.9-11.4-14.3-17.4c-4.6-6.2-9-12.5-13.4-18.9c-3.1-4.6-6-9.3-9.1-14
		c-3.5-5.3-7-10.6-10.3-16.1c-3.2-5.3-7-10.2-10-15.6c-3.5-6.4-8-12.3-11.5-18.7c-3.4-6.3-7.5-12.2-11.1-18.4
		c-1.8-3-3.4-6.1-5.4-8.9c-2.9-4.3-5.3-9-8.5-13.1c-2.1-2.7-3.5-5.8-5.6-8.6c-2.2-2.9-4.2-6-6.3-9c-2.8-4-6-7.8-8.5-11.9
		c-2.2-3.5-3.1-7.6-3.7-11.8c-0.6-3.9,0.6-7,2.3-10.2c0.6-1.1,0.9-2.3,1.7-3.4c0.4-0.6,0.8-1.2,1.6-1.1c0.4,0,0.7-0.1,0.7-0.5
		c-0.2-1.7,1.2-2.2,2.2-2.8c0.7-0.4,1.3-0.6,1.4-1.5c0-0.2,0.2-0.3,0.3-0.5c1.7,1.5,2.5-0.9,3.9-1c1.3-0.1,2.6-1.2,4,0.1
		c0.1,0.1,0.5-0.3,0.8-0.4c1.4-0.5,1.1,0.4,0.8,1.1c0.3,0.3,0.7,0.1,0.9-0.1c0.9-1.3,2.1-1.1,3.4-0.8c1.3,0.3,2.4,0.5,3.4,1.5
		c1.2,1,2.6,1.7,4,2.5c2.6,1.5,4.1,4,5.9,6.3c2.7,3.4,4.2,7.4,6.5,11.1c2.7,4.4,4.5,9.5,6.7,14.2c1.3,2.8,2.8,5.5,4.2,8.2
		c2.1,3.9,4,7.9,6,11.8c2.2,4,4.1,8.1,6.4,12.1c2,3.6,4.4,7.2,5.9,11c2,5.1,5.1,9.6,7.4,14.5c1.8,3.8,4,7.5,5.9,11.3
		c3.5,6.9,6.9,13.9,10.4,20.8c2.6,5.2,5.3,10.4,7.9,15.6c3.1,6.1,6,12.3,9.2,18.3c4,7.5,8,14.9,12.4,22.2c2.3,3.8,4.8,7.6,7.3,11.3
		c0.2,0.3,0.3,0.6,0.8,0.6c0.3-2.4-0.1-4.7-0.4-7c-1.5-12.1-4-24-7.2-35.8c-3.4-12.7-7.2-25.2-11.6-37.6c-2.5-7-5.1-13.9-9.2-20.2
		c-3-4.7-5.4-9.9-8.4-14.6c-2.4-3.8-4.7-7.6-6.9-11.4c-2.4-4.1-5-8.1-7.2-12.3c-2-3.8-3-8.1-2.9-12.6c0.1-3.3,0.4-6.3,2-9.2
		c2.1-3.7,4.8-7.1,8.7-8.9c2.1-1,4.2-3.1,7-1.9c2.1-1.4,4.3-0.3,6.2,0.1c3,0.7,6,2,8.4,4.4c3.8,3.6,6.8,7.7,8,12.7
		c1.1,4.6,2.4,9,3.9,13.5c0.9,2.8,1.5,5.9,2.8,8.4c2.7,4.9,4.1,10.2,6.7,15.1c3.7,7,7,14.1,10.5,21.2c1.6,3.2,3.5,6.3,5.1,9.5
		c2.8,5.7,6.3,11.1,9.3,16.7c2.7,5.1,6.1,9.9,9.2,14.8c3.6,5.5,7.2,11,11.2,16.3c4.7,6.2,9.4,12.3,15.1,17.6c2.2,2.1,4.6,4,7.5,5.1
		c0.6,0.2,1.3,0.6,1.8,0.3C466.2,839.2,467.4,841.2,468.7,843z"/>
	<path d="M617,843v6.5c-0.1,0.3-0.2,0.6-0.3,0.9c-1.5,9.2-7,15.5-14.8,20.1c-7.5,4.4-15.6,6.7-24.2,7.7c-2.5,0.3-5.1-0.1-7.5,0.7
		h-11c-3.1-0.7-6.3-0.6-9.4-1c-9.1-1.3-18.1-3.4-26.8-6.4c-3.2-1.1-6.4-2.2-9.5-3.8c-4.2-2.1-8.7-3.8-12.9-5.9
		c-5.7-3-10.9-6.6-16.2-10.2c-5.3-3.6-10.4-7.7-15.2-11.9c-4.7-4.2-9.3-8.5-13.5-13.2c-3.4-3.8-6.5-7.9-9.7-11.9
		c-1.7-2.1-2.5-4.8-4.3-6.8c-1.1-1.2-1.9-2.7-3.1-3.8c-2.4-2.3-4-5.1-5.4-7.9c-1.2-2.2-1.7-5-1.7-7.7c0-1.3-0.4-2.7,0.2-4
		c0.7-1.4,1.2-2.9,2-4.3c0.7-1.2,1.5-2.3,2.2-3.5c2.4-4,6.1-6.4,10.3-7.8c4.5-1.5,9.2-1.3,13.9-0.1c5.5,1.4,10.7,3.6,16.1,5.2
		c8.5,2.6,16.9,5.4,25.1,8.5c14.6,5.5,29.1,11.5,42.9,19c5.8,3.2,11.5,6.7,16.2,11.6c2.9,2.9,5.3,6.2,6.1,10.3
		c1.2,5.8-2.2,11.6-7.8,13.3c-1.5,0.5-3.1,0.4-4.1-1.1c-0.9-1.5-0.7-3,0.8-4.1c5.7-4.3,3.7-8-1-11.5c-4.2-3.2-9.1-5.2-14.1-7
		c-8.6-3.1-17.6-4.8-26.7-5.9c-7.6-0.9-15.2-1.1-22.7-1.5c-0.9-0.1-2.2-0.4-2.7,0.5c-0.5,0.9,0.4,1.9,1,2.7
		c5.5,7.5,11.6,14.5,18.1,21.2c5.9,6,12.7,10.7,19.4,15.7c8.4,6.3,17.6,10.8,27.6,13.8c12.7,3.8,25.6,5,38.7,2.2
		c2.9-0.6,5.7-1.7,8.2-3.4c6.3-4.2,8.3-10.1,6.8-17.3c-1.4-6.7-5-12.3-9.4-17.4c-9.2-10.8-20.6-18.9-32.4-26.6
		c-14.3-9.4-29.7-16.8-45.3-23.7c-7.8-3.4-15.5-7-23.1-10.7c-11.4-5.6-22.1-12.1-30.7-21.7c-4.3-4.9-7.6-10.5-10.2-16.4
		c-4.4-10-5.7-20.5-6.4-31.3c-0.4-6.4-0.2-12.8,0.2-19.1c0.2-2.4,1.3-4.6,2.2-6.8c1.4-3.3,3.8-5.8,6.5-7.8c2.2-1.7,4.9-2.9,7.9-2.4
		c1.4,0.2,3,0.5,4.5-0.1c0.4-0.2,0.9-0.3,1.3,0c2.8,2.1,6.3,3.3,8.5,6.3c2.8,3.7,3.8,7.9,3.5,12.3c-0.1,1.8-0.5,3.6-0.9,5.4
		c-0.6,2.2-0.4,4.3,0.3,6.5c4.8,14.2,11.3,27.7,18.4,40.9c1,1.9,2,3.8,3,5.7c0.6,1.2,1.1,2.5-0.2,3.4c-1.4,1-2.3-0.2-3.1-1.2
		c-4-5.4-7.3-11.3-10.9-16.9c-3.6-5.7-7.3-11.3-11.2-16.7c-0.3-0.4-0.6-1.2-1.2-1c-0.7,0.2-0.5,0.9-0.5,1.5
		c-1.8,13.8,2.9,25.4,12.5,35.2c6.2,6.4,13.5,11.2,21.1,15.7c16.1,9.4,32.7,17.9,48.4,28c10,6.4,19.7,13.2,28.6,21.1
		c7.3,6.5,14.2,13.4,19.6,21.7c3.6,5.6,6.6,11.4,7.6,18.1C616.8,842.5,616.9,842.8,617,843z"/>
	<path d="M666,877c1,2,1.5,3.8-0.2,5.6H664c-0.9-0.6-1.6-1.4-2.2-2.3c-9.7-15.2-19.5-30.3-29.2-45.4c-8.2-12.7-16.3-25.4-24.5-38
		c-6.2-9.5-12.4-18.9-18.7-28.4c-2.6-3.9-5.2-7.9-7.8-11.9c-3.1-4.7-6.5-9.2-9.6-13.9c-4.9-7.2-9.9-14.2-15.1-21.1
		c-4-5.4-8-10.8-12.1-16.1c-4.1-5.1-8.8-9.8-11.9-15.7c-1.8-3.4-3.4-7-3.4-11.1c0-2.5-0.4-4.9,0.7-7.2c1-2,2.4-3.8,3.1-6
		c0.3-0.8,1.2-1.4,2.1-1.8c1.3-0.6,2.7-1.2,3.4-2.6c0.1-0.2,0.4-0.4,0.6-0.5c2.8-0.8,5.4-2,8.5-1.7c1.8,0.2,3.6-0.1,5.4,0.3
		c2.9,0.7,5.2,2.3,7.4,4.2c5.2,4.2,7.4,10.1,9.7,16c2.6,6.8,5.3,13.5,8.1,20.2c3.6,8.5,7.4,16.9,11.2,25.3c3.8,8.4,8.2,16.6,12,25
		c3.5,7.7,7.3,15.2,11.1,22.7c4.1,8.1,8.2,16.3,12.4,24.4c8.4,16.2,16.7,32.5,25,48.7C655.3,856.2,660.6,866.6,666,877L666,877z"/>
	<path d="M850.1,680.5c-0.4,0.9-0.4,2-0.6,2.9c-1.5,6.3-5.7,10.2-11.1,13.2c-4,2.2-8.4,3-12.9,3.3c-5.6,0.4-10.7,2.4-15.3,5.7
		c-10.6,7.8-17.8,17.9-20.8,30.8c-0.3,1.3-1,2.2-2.4,2.3c-1.5,0.1-2.6-0.4-3.3-1.8c-1.4-2.7-1.4-5.5-1-8.4c1.3-8.1,4-15.8,7.1-23.4
		c0.2-0.6,0.5-1.2,0.7-1.8c0.2-0.9-0.1-1.3-1.2-1.3c-5.6-0.1-11.2,0.5-16.8,0c-3-0.2-6-0.1-9-0.1c-2.7,0.1-3.2,1.2-2.1,3.7
		c1.2,2.8,2.1,5.7,3.3,8.4c1.5,3.3,3.1,6.5,4.5,9.8c1.9,4.6,4,9.2,6.1,13.8c2.3,4.8,4.3,9.7,6.5,14.5c1.9,4,3.5,8.3,5.5,12.3
		c3.2,6.3,5.8,12.9,8.9,19.3c3.3,6.9,6.5,13.9,9.6,20.9c2.4,5.4,5.1,10.6,7.5,16c5.9,13,11.9,25.9,17.7,38.9
		c2.6,5.8,5,11.8,7.5,17.7c0.7,1.6,0.6,3-1,4h-0.8c-2.4-1.6-3.7-4.2-5.3-6.4c-8.2-11.1-16.1-22.5-23.8-33.9
		c-5.7-8.5-11.6-17-17.3-25.5c-6.3-9.4-12.5-18.9-19-28.1c-5.4-7.7-10.5-15.6-16-23.2c-5.6-7.9-10.9-16-16.6-23.8
		c-2.3-3.2-4.8-6.3-7.1-9.6c-5.3-7.3-10.7-14.5-13.8-23c-0.8-2.1-1.2-4.7-0.7-7.1c0.2-1.4-0.4-2.2-1.8-2.6c-2.3-0.6-4.6-0.8-6.9-1.2
		c-5.5-1-11-1.9-16.4-3c-19-4-37.7-9.2-55.8-16c-10-3.8-19.9-7.9-29-13.8c-2.7-1.8-5.3-3.8-7.2-6.5v-1.1c1.7-2.4,2.6-2.4,5.2-0.9
		c6.8,3.9,14.3,6.2,21.7,8.5c9.4,2.8,19,4.7,28.6,6.3c7.3,1.2,14.7,2,22.1,2.5c9.2,0.6,18.5,1.1,27.7,1.2c7.2,0.1,14.4,0.2,21.6-0.3
		c5.3-0.3,10.6-0.4,15.9-0.6c5.2-0.2,10.3-0.9,15.4-1.4c3.7-0.4,7.4-0.9,11-1.3c3-0.3,6.1-0.9,9.1-1.2c3.8-0.4,7.4-1.4,11.2-1.9
		c4.3-0.5,8.6-1.9,12.9-3c3.3-0.9,6.7-1.7,10-2.7c3.8-1.2,7.6-2.3,11.4-3.3c6-1.5,11.9-0.9,17.4,2.1c0.6,0.3,0.9,0.9,1.3,1.4
		c0.4,0.6,0.8,1.2,1.7,1.3c1.4,0.2,1.9,1.7,2.4,2.7c1.5,2.9,3.4,5.6,3.9,8.9C850.7,676.7,850.9,678.6,850.1,680.5z"/>
	<path d="M983,880.3h-1.9c-16.4-14.2-30.8-30.3-46.3-45.4c-6.7-6.5-13.4-13.1-20-19.8c-1.6-1.6-3.4-2.9-4.7-4.7
		c-0.3-0.4-0.7-1-1.2-0.8c-0.7,0.2-0.4,1-0.4,1.5c-0.1,1.9-0.6,3.8-1.3,5.5c-0.8,1.9-2.3,2.7-3.9,2.2c-1.5-0.6-2.1-1.9-1.7-3.9
		c0.8-3.7-1.4-7.8-5.5-10.1c-3.5-2-7.4-3.2-11.4-3.5c-4.4-0.4-8.7-0.1-13.1,0.5c-1.6,0.2-2,0.8-1.5,2.4c1.3,4.2,2.5,8.4,3.8,12.6
		c0.4,1.4,0.5,2.7-1,3.5c-1.6,0.8-2.6-0.3-3.4-1.5c-2.5-3.8-4.3-8-6.3-12.2c-1-2.1-1.2-2.1-3.3-1c-2.6,1.3-5,3-7.8,3.8
		c-4.1,1.3-8.2,2.4-12.5,1c-0.5-0.2-1-0.6-1.5-0.9c-2.1-1-4.3-1.8-6-3.5c-1-1-1.9-1.7-2.3-3.3c-0.3-1.1-1-2.6-2-3.6
		c-0.8-0.7-1.2-1.4-0.4-2.6c0.5-0.7,0-2.1-0.3-3.1c-0.5-2.2-0.2-4.1,1.4-5.7c0.4-0.4,0.3-1,0.4-1.4c1.1-2.8,2.5-5.5,5-7.2
		c4-2.7,8.5-3.8,13.3-3.4c1.8,0.1,1.5-0.6,1-1.6c-4.3-8.3-8.2-16.7-12.7-24.9c-2.8-5-5.9-9.8-8.7-14.9c-2.3-4.1-5.6-7.3-8.5-10.9
		c-2.8-3.5-5.1-7.2-7.2-11c-1.7-2.9-2.5-6.3-2.8-9.5c-0.3-3.5-0.3-7.4,2.3-10.5c0.7-0.8,0.3-2,1.2-2.7c0.5-0.4,0.2-2.1,1.7-1
		c0,0,0.5-0.3,0.5-0.5c0-2.5,2.3-2.7,3.7-3.7c2.8-2,5.9-2.6,9.4-2.1c1.7,0.2,3.6,0.8,5.4,0.3c0.4-0.1,0.9,0.1,1.2,0.4
		c2.6,1.9,5.2,3.7,7.6,5.8c1.5,1.3,2.6,3,3.8,4.6c2,2.7,4,5.4,5.8,8.2c2.3,3.4,4.3,6.9,6.6,10.3c3,4.5,6.2,8.9,9.3,13.4
		c3.9,5.8,8.1,11.3,12.2,16.9c2.7,3.8,5.7,7.2,8.3,11c3.2,4.8,7,9.1,10.4,13.8c3.6,5,7.6,9.8,11.2,14.8c4.3,6,9,11.6,13.4,17.5
		c7,9.3,14.2,18.3,21.3,27.5c12.9,16.5,26.1,32.7,38.5,49.6C983.1,877.7,983.8,878.8,983,880.3z M889.9,790.8
		c-0.4-0.5-0.5-0.8-0.6-0.9c-4.2-4.1-8.4-8.1-12.5-12.2c-2.8-2.8-6-5.3-8.7-8.2c-2.4-2.6-5.3-4.7-7.6-7.3c-0.3-0.4-0.8-0.8-1.3-0.6
		c-0.5,0.3-0.2,0.8-0.1,1.2c1.5,5.8,3.1,11.7,4.6,17.5c0.3,1.1,0.9,1.7,1.9,2.1c3.9,1.6,8,2.8,12,4.2
		C881.5,788,885.5,789.3,889.9,790.8z"/>
	<path d="M1030.6,680.5c-0.4,0.9-0.4,2-0.6,2.9c-1.5,6.3-5.7,10.2-11.1,13.2c-4,2.2-8.4,3-12.9,3.3c-5.6,0.4-10.7,2.4-15.3,5.7
		c-10.6,7.8-17.8,17.9-20.8,30.8c-0.3,1.3-1,2.2-2.4,2.3c-1.5,0.1-2.6-0.4-3.3-1.8c-1.4-2.7-1.4-5.5-1-8.4c1.3-8.1,4-15.8,7.1-23.4
		c0.2-0.6,0.5-1.2,0.7-1.8c0.2-0.9-0.1-1.3-1.2-1.3c-5.6-0.1-11.2,0.5-16.8,0c-3-0.2-6-0.1-9-0.1c-2.7,0.1-3.2,1.2-2.1,3.7
		c1.2,2.8,2.1,5.7,3.3,8.4c1.5,3.3,3.1,6.5,4.5,9.8c1.9,4.6,4,9.2,6.1,13.8c2.3,4.8,4.3,9.7,6.5,14.5c1.9,4,3.5,8.3,5.5,12.3
		c3.2,6.3,5.8,12.9,8.9,19.3c3.3,6.9,6.5,13.9,9.6,20.9c2.4,5.4,5.1,10.6,7.5,16c5.9,13,11.9,25.9,17.7,38.9
		c2.6,5.8,5,11.8,7.5,17.7c0.7,1.6,0.6,3-1,4h-0.8c-2.4-1.6-3.7-4.2-5.3-6.4c-8.2-11.1-16.1-22.5-23.8-33.9
		c-5.7-8.5-11.6-17-17.3-25.5c-6.3-9.4-12.5-18.9-19-28.1c-5.4-7.7-10.5-15.6-16-23.2c-5.6-7.9-10.9-16-16.6-23.8
		c-2.3-3.2-4.8-6.3-7.1-9.6c-5.3-7.3-10.7-14.5-13.8-23c-0.8-2.1-1.2-4.7-0.7-7.1c0.2-1.4-0.4-2.2-1.8-2.6c-2.3-0.6-4.6-0.8-6.9-1.2
		c-5.5-1-11-1.9-16.4-3c-19-4-37.7-9.2-55.8-16c-10-3.8-19.9-7.9-29-13.8c-2.7-1.8-5.3-3.8-7.2-6.5v-1.1c1.7-2.4,2.6-2.4,5.2-0.9
		c6.8,3.9,14.3,6.2,21.7,8.5c9.4,2.8,19,4.7,28.6,6.3c7.3,1.2,14.7,2,22.1,2.5c9.2,0.6,18.5,1.1,27.7,1.2c7.2,0.1,14.4,0.2,21.6-0.3
		c5.3-0.3,10.6-0.4,15.9-0.6c5.2-0.2,10.3-0.9,15.4-1.4c3.7-0.4,7.4-0.9,11-1.3c3-0.3,6.1-0.9,9.1-1.2c3.8-0.4,7.4-1.4,11.2-1.9
		c4.3-0.5,8.6-1.9,12.9-3c3.3-0.9,6.7-1.7,10-2.7c3.8-1.2,7.6-2.3,11.4-3.3c6-1.5,11.9-0.9,17.4,2.1c0.6,0.3,0.9,0.9,1.3,1.4
		c0.4,0.6,0.8,1.2,1.7,1.3c1.4,0.2,1.9,1.7,2.4,2.7c1.5,2.9,3.4,5.6,3.9,8.9C1031.2,676.7,1031.4,678.6,1030.6,680.5z"/>
	<path d="M1127.4,680.5c-0.4,0.9-0.4,2-0.6,2.9c-1.5,6.3-5.7,10.2-11.1,13.2c-4,2.2-8.4,3-12.9,3.3c-5.6,0.4-10.7,2.4-15.3,5.7
		c-10.6,7.8-17.8,17.9-20.8,30.8c-0.3,1.3-1,2.2-2.4,2.3c-1.5,0.1-2.6-0.4-3.3-1.8c-1.4-2.7-1.4-5.5-0.9-8.4
		c1.3-8.1,4-15.8,7.1-23.4c0.2-0.6,0.5-1.2,0.7-1.8c0.2-0.9-0.1-1.3-1.2-1.3c-5.6-0.1-11.2,0.5-16.8,0c-3-0.2-6-0.1-9-0.1
		c-2.7,0.1-3.2,1.2-2.1,3.7c1.2,2.8,2.1,5.7,3.3,8.4c1.5,3.3,3.1,6.5,4.5,9.8c1.9,4.6,4,9.2,6.1,13.8c2.3,4.8,4.3,9.7,6.5,14.5
		c1.9,4,3.5,8.3,5.5,12.3c3.2,6.3,5.8,12.9,8.9,19.3c3.3,6.9,6.5,13.9,9.6,20.9c2.4,5.4,5.1,10.6,7.5,16c5.9,13,11.9,25.9,17.7,38.9
		c2.6,5.8,5,11.8,7.5,17.7c0.7,1.6,0.6,3-1,4h-0.8c-2.4-1.6-3.7-4.2-5.3-6.4c-8.2-11.1-16.1-22.5-23.8-33.9
		c-5.7-8.5-11.6-17-17.3-25.5c-6.3-9.4-12.5-18.9-19-28.1c-5.4-7.7-10.5-15.6-16-23.2c-5.6-7.9-10.9-16-16.6-23.8
		c-2.3-3.2-4.8-6.3-7.1-9.6c-5.3-7.3-10.7-14.5-13.8-23c-0.8-2.1-1.2-4.7-0.7-7.1c0.2-1.4-0.4-2.2-1.8-2.6c-2.3-0.6-4.6-0.8-6.9-1.2
		c-5.5-1-11-1.9-16.4-3c-19-4-37.7-9.2-55.8-16c-10-3.8-19.9-7.9-29-13.8c-2.7-1.8-5.3-3.8-7.2-6.5v-1.1c1.7-2.4,2.6-2.4,5.2-0.9
		c6.8,3.9,14.3,6.2,21.7,8.5c9.4,2.8,19,4.7,28.6,6.3c7.3,1.2,14.7,2,22.1,2.5c9.2,0.6,18.5,1.1,27.7,1.2c7.2,0.1,14.4,0.2,21.6-0.3
		c5.3-0.3,10.6-0.4,15.9-0.6c5.2-0.2,10.3-0.9,15.4-1.4c3.7-0.4,7.4-0.9,11-1.3c3-0.3,6.1-0.9,9.1-1.2c3.8-0.4,7.4-1.4,11.2-1.9
		c4.3-0.5,8.6-1.9,12.9-3c3.3-0.9,6.7-1.7,10-2.7c3.8-1.2,7.6-2.3,11.4-3.3c6-1.5,11.9-0.9,17.4,2.1c0.6,0.3,0.9,0.9,1.3,1.4
		c0.4,0.6,0.8,1.2,1.7,1.3c1.4,0.2,1.9,1.7,2.4,2.7c1.5,2.9,3.4,5.6,3.9,8.9C1128.1,676.7,1128.3,678.6,1127.4,680.5z"/>
	<path d="M1245.9,846.4v1.1c-0.6,1.8-0.5,3.7-0.7,5.6c-1.1,9.7-5.3,17.6-14.1,22.3c-5.2,2.8-10.9,3.3-16.7,2.7c-9.5-1-18-4.6-26-9.6
		c-10-6.2-18.5-14.2-26.4-22.8c-4.1-4.4-8.1-8.9-12.3-13.3c-7.8-8-15.2-16.3-22.4-24.9c-7.3-8.8-14.2-17.8-20.6-27.3
		c-7-10.4-13.6-21.1-19.8-32c-5.1-9-10-18.2-13.8-27.9c-2-4.9-3.8-9.9-5.2-15.1c-1.2-4.2-2.4-8.5-2.6-12.8
		c-0.2-4.4-0.6-8.9,0.6-13.4c1.2-4.5,2.8-8.8,5.7-12.4c2.3-2.9,5.2-5.2,8.6-7c3.9-2,8-3.1,12.2-3.1c3.2,0,6.4,0.5,9.6,1.6
		c2.9,1,5.7,2,8.5,3.1c3.7,1.4,7,3.5,10.2,5.7c4.5,2.9,8.9,6.1,13,9.5c6.4,5.2,12.8,10.4,18.7,16.2c4.3,4.2,8.9,8.3,13.1,12.6
		c3.2,3.2,6.2,6.7,9.2,10c4.1,4.5,8.2,8.9,12,13.6c3.2,3.9,6.4,7.9,9.7,11.7c2.3,2.7,4.5,5.5,6.5,8.3c4.5,6.3,9.1,12.6,13.2,19.2
		c3.9,6.3,8,12.4,11.3,19.1c2.4,4.8,4.8,9.6,7,14.6c4.9,11.4,8.7,23.1,10.5,35.4C1245.5,840.4,1245.1,843.5,1245.9,846.4z
		 M1223.6,853.8c0.4-1.8,0.5-3.6,0.5-5.5c0-6.7-2.3-12.9-4.9-19c-2.3-5.3-5.2-10.3-8.1-15.3c-4.8-8.3-10.3-16.1-16.1-23.7
		c-6.2-8.3-12.9-16.3-19.7-24.1c-3.2-3.7-6.7-7.2-9.9-10.9c-4.1-4.6-8.9-8.6-12.9-13.3c-1.1-1.2-2.1-2.5-3.4-3.5
		c-2.6-2-4.8-4.3-7.2-6.5c-4.1-3.7-8.1-7.5-12.3-11c-4.1-3.5-8.4-6.8-12.7-10c-4.2-3.2-8.2-6.4-12.8-9c-3.9-2.2-4-2.1-3.9,2.4
		c0,1-0.1,2,0,3c0.8,8.8,2.5,17.5,4.8,26.1c2.3,8.4,5.2,16.6,8.6,24.6c6.2,14.6,14.5,28,23.4,41c8.1,11.9,17.1,23.3,25.9,34.7
		c2,2.5,3.9,5.1,6.5,7.2c7.7,6.1,16.1,11,25,15.1c5.9,2.7,12,4.4,18.4,4.9C1218.5,861.6,1222.6,858.8,1223.6,853.8z"/>
	<path d="M1369.7,846.4v1.1c-0.6,1.8-0.5,3.7-0.7,5.6c-1.1,9.7-5.3,17.6-14.1,22.3c-5.2,2.8-10.9,3.3-16.7,2.7c-9.5-1-18-4.6-26-9.6
		c-10-6.2-18.5-14.2-26.4-22.8c-4.1-4.4-8.1-8.9-12.3-13.3c-7.8-8-15.2-16.3-22.4-24.9c-7.3-8.8-14.2-17.8-20.6-27.3
		c-7-10.4-13.6-21.1-19.8-32c-5.1-9-10-18.2-13.8-27.9c-2-4.9-3.8-9.9-5.2-15.1c-1.2-4.2-2.4-8.5-2.6-12.8
		c-0.2-4.4-0.6-8.9,0.6-13.4c1.2-4.5,2.8-8.8,5.7-12.4c2.3-2.9,5.2-5.2,8.6-7c3.9-2,8-3.1,12.2-3.1c3.2,0,6.4,0.5,9.6,1.6
		c2.9,1,5.7,2,8.5,3.1c3.7,1.4,7,3.5,10.2,5.7c4.5,2.9,8.9,6.1,13,9.5c6.4,5.2,12.8,10.4,18.7,16.2c4.3,4.2,8.9,8.3,13.1,12.6
		c3.2,3.2,6.2,6.7,9.2,10c4.1,4.5,8.2,8.9,12,13.6c3.2,3.9,6.4,7.9,9.7,11.7c2.3,2.7,4.5,5.5,6.5,8.3c4.5,6.3,9.1,12.6,13.2,19.2
		c3.9,6.3,8,12.4,11.3,19.1c2.4,4.8,4.8,9.6,7,14.6c4.9,11.4,8.7,23.1,10.5,35.4C1369.3,840.4,1368.8,843.5,1369.7,846.4z
		 M1347.4,853.8c0.4-1.8,0.5-3.6,0.5-5.5c0-6.7-2.3-12.9-4.9-19c-2.3-5.3-5.2-10.3-8.1-15.3c-4.8-8.3-10.3-16.1-16.1-23.7
		c-6.2-8.3-12.9-16.3-19.7-24.1c-3.2-3.7-6.7-7.2-9.9-10.9c-4.1-4.6-8.9-8.6-12.9-13.3c-1.1-1.2-2.1-2.5-3.4-3.5
		c-2.6-2-4.8-4.3-7.2-6.5c-4.1-3.7-8.1-7.5-12.3-11c-4.1-3.5-8.4-6.8-12.7-10c-4.2-3.2-8.2-6.4-12.8-9c-3.9-2.2-4-2.1-3.9,2.4
		c0,1-0.1,2,0,3c0.8,8.8,2.5,17.5,4.8,26.1c2.3,8.4,5.2,16.6,8.6,24.6c6.2,14.6,14.5,28,23.4,41c8.1,11.9,17.1,23.3,25.9,34.7
		c2,2.5,3.9,5.1,6.5,7.2c7.7,6.1,16.1,11,25,15.1c5.9,2.7,12,4.4,18.4,4.9C1342.3,861.6,1346.4,858.8,1347.4,853.8z"/>
</g>
</svg>
