<?xml version="1.0" encoding="utf-8"?>
<!-- Generator: Adobe Illustrator 26.0.1, SVG Export Plug-In . SVG Version: 6.00 Build 0)  -->
<svg version="1.1" xmlns="http://www.w3.org/2000/svg" xmlns:xlink="http://www.w3.org/1999/xlink" x="0px" y="0px"
	 viewBox="0 0 1500 1500" style="enable-background:new 0 0 1500 1500;" xml:space="preserve">
<style type="text/css">
	.st0{fill:#FFFFFF;}
</style>
<g id="signature">
	<path id="signature-1" class="st0" d="M337.3,882.2l-1.2-0.3c-3.7-1.4-5.6-3.6-5.6-6.7c0-2.3,0.5-5,1.5-7.9c0.6-1.6,1-3,1.3-4.4
		c0.3-1.4,0.6-2.5,1-3.5c0-2.3,0.5-4.5,1.5-6.4v-1.2l2.9-13.8c0.4-1.4,0.6-2.5,0.7-3.5c0.1-1,0.1-1.8,0.1-2.3c1-6.8,1.6-12,1.8-15.5
		l0.6-5c0-0.6-0.1-1-0.3-1.2l0.6-3.2l-0.3-2.3c0.2-0.2,0.3-0.6,0.3-1.2c0-4.9-0.1-7.9-0.3-9.1l0.3-3.2l-0.3-2
		c-0.4-1.8-0.6-3.7-0.7-5.9c-0.1-2.1-0.4-4.2-1-6.1v-2l-1.5-5c-4.5-19.9-17-36-37.5-48.3c-0.2,0-0.4-0.1-0.6-0.3
		c-0.2-0.2-0.5-0.3-0.9-0.3l-4.7-2.6c-7.6-4.3-14-6.7-19-7.3c-3.3,0.2-8,0.3-14.1,0.3c-1.2,0.2-6.6,0.3-16.4,0.3l-5.3,0.6
		c-8.2,0-16.3,0.2-24.3,0.6h-4.4l-2.9,0.3l-2.9-0.3l-1.5,0.3c-6.2,0-10.8,0.1-13.8,0.3l-5.6-0.3l-5,0.3c-2.5-0.4-5.2-0.6-7.9-0.6
		c-1.8-0.6-4.1-0.9-7-0.9c-1.6-0.6-2.9-1.1-4.1-1.5c-1.2-0.4-2.2-1.2-3.2-2.3c-1-1.2-1.5-2.4-1.5-3.8c0.2-1.9,0.6-3.7,1.2-5.3
		c0.8-2.5,4-4.3,9.7-5.3l3.8-0.9h1.8c2-0.6,4.2-0.9,6.6-1c2.4-0.1,4.7-0.4,6.9-1l2.6-0.3c6.1,0,12.1-0.3,18.2-0.9l2.9,0.3
		c0.6-0.2,2.8-0.3,6.7-0.3l15.8,0.6c0.8,0.2,1.6,0.3,2.5,0.3c0.9,0,1.8,0.1,2.8,0.3c2.2,0.4,4.3,0.7,6.6,0.9
		c2.2,0.2,4.3,0.5,6.3,0.9l4.1,0.6l6.7,1.5c8.2,1.4,15.9,3.4,23.1,6.1l2,0.6c1.8,1,3.2,1.6,4.4,1.8l21.4,0.3c2.2,0,3.7,0.1,4.7,0.3
		c0.6-0.2,3.1-0.3,7.6-0.3c5.5,0.2,8.8,0.4,10,0.6l1.5-0.3l1.5,0.3l14.1-0.3c1.2,0.2,3.2,0.3,6,0.4c2.8,0.1,5.5,0.1,8.1,0.1
		c3.9,0,7,0.1,9.4,0.3l7.6-0.3h15.5c1.2,0,2.2-0.1,3.2-0.3c3.7-8.2,7.2-16.4,10.5-24.6c10.1-24,18-41.3,23.4-51.8l0.6-1.8
		c1.8-4.5,4-7.1,6.7-7.9l1.2-0.6c1.2,0,2.2,0.1,3.1,0.4c0.9,0.3,1.7,0.9,2.5,1.8c0.8,0.9,1.2,2,1.2,3.4c-0.4,2.2-1.2,4.1-2.5,5.9
		c-1.3,1.8-2.2,3.3-2.8,4.7c-0.6,1.4-1.2,2.6-1.8,3.8c-8.4,15.4-16.2,31.4-23.4,48c-2.5,4.5-4,7.5-4.4,9.1c-1.2,2.5-2.2,4.4-2.9,5.7
		c-0.8,1.3-1.2,2.6-1.2,4l0.3,0.3c33.8,0.2,51.3,0.4,52.7,0.6l3.5-0.3c1.4,0.2,6,0.3,13.8,0.3c6.4,0.4,28.1,0.6,65,0.6
		c71.8,0,130.1-0.1,174.8-0.3l5.9,0.3c2.7-0.4,7-0.6,12.9-0.6l22.8-0.6h41.6c1.4,0,2.5,0,3.5-0.1c1-0.1,1.9-0.2,2.6-0.4l3.8,0.3
		l5.3-0.3c11.7-0.2,18.5-0.4,20.5-0.6c1.9-0.2,4-0.3,6.1-0.3l14.3-0.6c1.8,0.2,3,0.8,3.8,1.8c0.8,1,1.2,2,1.2,3.2
		c-0.2,3.3-2.2,5-5.9,5c-1,0-2-0.1-3.2-0.3c-1.2-0.2-7.1-0.4-17.9-0.6c-4.9,0-8,0-9.2-0.1c-1.3-0.1-2.6-0.2-4-0.4l-4.4,0.3l-8.5-0.3
		l-3.8,0.3c-1-0.2-4.1-0.4-9.4-0.6l-2.6,0.3l-6.7-0.3c-20.5,0-31.1-0.1-31.9-0.3l-3.8,0.3c-1.4-0.2-2.8-0.3-4.4-0.3H419.9l-3.8-0.3
		c-1.2,0.2-3.6,0.3-7.3,0.3c-1.6,2.9-3,6-4.4,9.1c-1.6,4.1-3.4,8.3-5.6,12.6l-3.2,7c-2.3,6.1-7.3,17.8-14.9,35.1
		c0,0.8-0.2,1.4-0.6,1.9c-0.4,0.5-0.6,0.9-0.6,1.3c-0.6,1-1,2.1-1.3,3.4c-0.3,1.3-0.9,2.7-1.9,4.2c-0.6,1-1.7,3.7-3.4,8.1
		c-1.7,4.4-3.4,8.6-5.1,12.7l-1.5,5c-2.7,6.2-5.3,12.7-7.6,19.3l-5.9,15.8l-5.9,17.3c-0.6,4.5-1.5,8.2-2.6,11.1l-0.9,3.2
		C342.1,880.7,340,882.2,337.3,882.2z M354,816.6l0.6-1.5c0-0.4,0.2-0.7,0.7-1c0.5-0.3,0.9-1.2,1.2-2.6c0.3-1.5,0.8-3,1.6-4.5
		c2-3.7,3.5-7.4,4.7-11.1l1.5-3.5c4.1-9.2,8-18.4,11.7-27.8l10.2-24.6c2.1-4.7,5.2-11.8,9.1-21.4l2.6-5.9c0.4-0.4,0.6-1,0.6-1.8
		h-0.3c-0.4-0.2-10.2-0.3-29.6-0.3c-30.1,0-50.5,0.2-61.2,0.6v0.3l3.8,2.3c3.1,1.6,5.4,3,6.7,4.4l2.3,2c4.3,3.1,8,6.6,11.1,10.5
		c0.2,0.4,0.4,0.6,0.7,0.7c0.3,0.1,0.5,0.2,0.7,0.4c7.6,9.4,13.4,20.6,17.3,33.7c0.8,2.5,1.4,5.3,1.8,8.2c0.6,1.8,0.9,3.4,1,4.8
		c0.1,1.5,0.2,2.9,0.4,4.4c0.2,1.5,0.4,2.8,0.6,4v5c0.2,0.8,0.3,1.8,0.3,2.9v3.2l0.3,1.2c-0.2,2.2-0.3,4.4-0.3,6.7
		c0,4.1-0.2,7.6-0.6,10.5H354z"/>
	<path id="signature-2" class="st0" d="M406.4,822.2h-0.9l-6.1-1.8c-1.8-1.4-3.1-2.9-4.1-4.7c-1-1.8-1.5-4.7-1.5-8.8c0-3.1,0.3-5.8,0.9-8.1
		c0.6-2.2,1.2-4.4,1.8-6.6c2-7.8,5.6-17.5,10.8-29l2-4.4c2.3-6.4,5.3-9.7,8.8-9.7c1,0,1.9,0.2,2.9,0.7c1,0.5,1.9,1.3,2.8,2.3
		c0.9,1.1,1.3,2.4,1.3,4c-0.2,1.6-0.5,2.6-0.9,3.1c-0.4,0.5-0.8,1.2-1.2,2.2c-0.4,1-0.8,1.8-1.2,2.3c-2.5,3.5-3.8,5.8-3.8,6.7
		c-1,1.6-1.8,3-2.3,4.4c-0.6,1.4-1.4,3-2.3,5c-1.6,3.5-2.7,6.5-3.5,9.1l-3.2,10v2.3c-0.4,1.2-0.6,2.5-0.6,4.1l0.3,1.8h1.5
		c0.6-0.4,1.4-0.7,2.3-1c1-0.3,2.8-1.4,5.6-3.4c0.6-0.6,2.8-2.2,6.7-5l0.6-1.2c2.5-1.8,4.7-3.7,6.4-5.9c1.4-1.2,2.6-2.4,3.8-3.8l2-2
		c1.4-1.8,2.8-3.4,4.2-5c1.5-1.6,2.9-3.3,4.2-5.1c1.4-1.9,2.7-3.8,4.1-5.7c6-8,9.4-13.3,10-15.8c0.4-0.6,0.8-1.3,1.2-2
		c0.4-0.8,0.7-1.7,1-2.6c0.3-1,1.1-1.9,2.3-2.9c1.3-1,2.6-1.6,4-1.8c1.9,0.2,3.5,0.9,4.5,2c1.1,1.2,1.8,3.2,2.2,6.1
		c-1.2,2.2-1.8,3.5-1.9,4c-0.1,0.5-0.3,1-0.7,1.6c-2.9,5.1-5.7,10.5-8.2,16.4l-0.6,1.5c-1.2,2-2.6,5.4-4.4,10.2
		c-2.9,8-4.4,13.7-4.4,17v1.5l1.2,0.3c0.6-0.4,1.1-0.7,1.6-1c0.5-0.3,0.9-0.5,1.3-0.7c0.4-0.2,0.7-0.4,0.9-0.6
		c0.2-0.2,0.3-0.4,0.3-0.6c1.8-0.6,3.8-1.9,6.1-4.1c1-0.8,2-1.6,3.2-2.5s2.4-2,3.8-3.4c1.4-1.4,2.7-2.5,4.1-3.5
		c1.8-1.9,3.6-3.7,5.6-5.3c0.4-0.8,1.9-2.2,4.7-4.4l0.6-1.2c2.1-1.8,4.1-3.6,5.9-5.4c1.8-1.9,3.5-3.7,5.3-5.4c1-1,1.9-1.9,2.8-2.9
		c0.9-1,1.9-1.5,3.1-1.5c1,0,1.9,0.2,2.6,0.6c0.8,0.4,1.3,0.9,1.6,1.5c0.3,0.6,0.4,1.3,0.4,2c0,1-0.2,1.9-0.7,2.6
		c-0.5,0.8-1.2,1.5-2.2,2c-1,0.6-1.8,1.4-2.3,2.3c-0.6,1-1.2,1.7-1.8,2c-2,1.6-3.8,3.2-5.6,5c-0.6,0.6-1.2,1.2-1.9,1.9
		c-0.7,0.7-1.5,1.3-2.5,1.9c-2.2,2.5-4.4,4.8-6.7,6.7l-2.6,3.2c-1.4,1.4-2.6,2.6-3.8,3.7c-1.2,1.1-2.2,2.1-2.9,3.1
		c-1.4,1-2.8,2.2-4.4,3.8c-5.1,4.5-8.6,7.4-10.7,8.8c-2,1.4-4.4,2.3-7.2,2.9c-1.2,0-2-0.1-2.3-0.3c-0.4-0.2-0.7-0.3-1-0.3
		s-0.8,0-1.5,0c-0.7,0-1.6-0.7-2.8-2c-1.2-1.4-2-2.5-2.3-3.5l-0.6-5.9c0-2.1,0.2-4.2,0.6-6.1c0-1,0.2-2,0.7-3.1
		c0.5-1.1,0.7-2.5,0.7-4.2h-0.3c-2.3,2.3-4.5,4.9-6.4,7.6l-5.3,5.9c-2.3,3.3-5.2,6.1-8.5,8.5l-0.9,1.2c-3.3,2.5-5.1,4-5.4,4.2
		c-0.3,0.3-0.5,0.5-0.7,0.7c-2,0.6-3.1,1-3.4,1.3c-0.3,0.3-0.9,0.5-1.8,0.7c-0.9,0.2-1.8,0.4-2.6,0.7
		C408,822,407.2,822.2,406.4,822.2z"/>
	<path id="signature-3" class="st0" d="M476.1,847.1c-3.5,0-6.6-0.9-9.4-2.8c-2.7-1.9-4.1-4.4-4.1-7.8c0-1.6,0.3-3.1,0.9-4.7l0.3-2
		c4.5-7.8,10.2-14.3,17-19.6c0.4-0.8,1.6-1.9,3.5-3.2l6.4-5.6c2-1.8,3.6-3,4.8-3.7c1.3-0.7,2-1.5,2.2-2.5c-0.4-0.2-0.9-1.3-1.5-3.2
		c-0.4-1-0.6-2-0.6-3.2c-0.8-2.5-1.2-5.1-1.2-7.6c0-3.7,0.7-7.2,2-10.5c2.7-6.8,6.7-12.4,11.9-16.8c5.2-4.4,10.8-8.2,16.8-11.6
		c1-0.4,2.1-0.9,3.5-1.6c1.4-0.7,2.7-1.1,4-1.3c1.3-0.2,2.3-0.5,3.1-0.9c1.9,0,3.8,0.6,5.6,1.9c1.8,1.3,2.6,2.8,2.6,4.5
		c0,2.5-1.4,4.2-4.1,5l-2.6,0.9c-2,1-4.1,1.9-6.4,2.6c-0.6,0.6-1,0.9-1.3,1c-0.3,0.1-0.7,0.2-1.3,0.4c-0.6,0.2-1.1,0.4-1.5,0.6
		c-1.2,1.2-2.5,2-4.1,2.6c-4.5,2.7-8.2,6-11,9.8c-2.8,3.8-4.2,7.4-4.2,10.7c0,1,0,1.8,0.1,2.5c0.1,0.7,0.2,1.4,0.3,2.2
		c0.1,0.8,0.2,1.6,0.4,2.5c0.2,0.9,0.9,1.3,2,1.3c0.6-0.6,1.3-1.1,2-1.5c0.8-0.4,1.9-1.1,3.2-2c2.7-2.1,4.5-3.4,5.3-3.7
		c0.8-0.3,1.4-0.6,1.8-1c6.8-4.5,10.6-6.8,11.4-7c2.9-1.9,5-3.1,6.1-3.5c1.6-1.4,4.2-3,7.9-5c2.1-1,3.4-1.6,3.7-1.8
		c0.3-0.2,0.8-0.5,1.5-1c0.7-0.5,1.6-0.7,2.8-0.7c1.2,0.2,1.9,0.6,2.3,1.2c0.4,0.6,0.8,1.1,1.2,1.5v2.6c-0.4,1-1.4,1.7-2.9,2
		c-0.6,0.4-1.2,0.7-1.8,0.9c-0.6,0.2-1.1,0.4-1.5,0.6c-0.4,0.2-0.7,0.4-0.9,0.6c-0.2,0.2-0.7,0.4-1.5,0.6c-0.8,0.2-1.3,0.4-1.5,0.7
		c-0.2,0.3-0.8,0.4-1.8,0.4c-8.4,4.3-16.3,9-23.7,14.1c-0.4,0.2-0.9,0.4-1.5,0.6c-0.6,0.2-1.8,1.1-3.5,2.6c-0.2,0.2-0.6,0.3-1.2,0.3
		c-0.6,0.4-1.1,0.9-1.6,1.5c-0.5,0.6-0.9,1-1.3,1.2c-2,0.6-2.9,1.4-2.9,2.3c0,0.6,0.2,1.2,0.7,1.8c0.5,0.6,0.7,1.4,0.7,2.3
		c2.7,4.5,4.1,9,4.1,13.5l-0.3,5.6c-1.6,7-4.8,12.6-9.7,16.7c-0.4,0.2-0.8,0.6-1.2,1.2c-0.4,0.6-0.9,1-1.5,1.3
		c-0.6,0.3-1.1,0.7-1.6,1.3c-0.5,0.6-1.5,1.3-3.1,2c-0.8,0.4-2.1,1.2-4,2.3c-1.9,1.2-3.7,1.9-5.4,2.3l-2.3,0.9
		C484.8,846.3,480.6,847.1,476.1,847.1z M474.3,836.2l2.3-0.3c3.1-1,6.1-2,9.1-3.2c7-2.9,12.2-7.7,15.5-14.3l0.6-1.2
		c0.6-1.4,0.9-2.9,0.9-4.7c-0.2-1.4-0.4-2.7-0.6-4.1c-0.2-1.4-0.6-2.7-1.2-4.1l-0.6-1.8h-0.9l-2,1.2l-8.8,7.9
		c-4.1,3.3-7.6,7.1-10.5,11.4l-1.5,2c-3.3,3.7-5,7.1-5,10.2c0.2,0.2,0.5,0.3,1,0.4C473.2,835.9,473.7,836,474.3,836.2z"/>
	<path id="signature-4" class="st0" d="M603.5,882.2c-4.5-1-6.7-3.3-6.7-7c0-2.3,0.5-4.8,1.5-7.3c1.2-4.1,1.9-7.1,2.2-8.9c0.3-1.9,0.8-3.9,1.6-6v-1.2
		c1.9-7.4,3.3-14.7,4.1-22l0.9-6.1c0-4.5,0.4-8.5,1.2-12c0-0.6-0.1-1-0.3-1.2l0.6-3.2l-0.3-2.3c0.2-0.2,0.3-0.6,0.3-1.2
		c0-4.9-0.1-7.9-0.3-9.1l0.3-3.2l-0.3-3.8c-0.2-3.7-0.8-7.1-1.8-10.2c0-4.1-0.8-7.6-2.3-10.5l-0.6-2c-2.7-7.8-6.4-14.9-11.1-21.4
		c-6.8-8.4-15.1-15.5-24.9-21.4l-7.3-4.1c-2.7-1.8-5.4-3.2-8.1-4.2c-2.6-1.1-5.9-1.8-9.8-2.2l-5,0.3c-6,0-9.7,0.1-10.8,0.3
		c-10.1,0-15.9,0.1-17.3,0.3c-0.2,0-0.7,0.1-1.5,0.1c-0.8,0.1-5.8,0.1-14.9,0.1l-10.2,0.6c-3.3,0-5.9,0.1-7.6,0.3l-2.9-0.3l-1.5,0.3
		c-6.2,0-10.8,0.1-13.8,0.3l-5.6-0.3l-5,0.3l-6.4-0.9c-2.7-0.4-5.6-0.6-8.5-0.6l-2.6-0.9c-1.9-0.4-3.5-1.3-4.5-2.6
		c-1.1-1.4-1.6-2.7-1.6-4.1l0.6-4.4c0.8-2.9,4.2-5,10.2-6.1l3.8-0.9h1.8c4.1-1.2,8.7-1.9,13.8-2l2.3-0.3c3.9,0,6.6,0,8.1,0
		c1.5,0,4.8-0.3,10.1-0.9l2.9,0.3c0.6-0.2,1.4-0.3,2.3-0.3l20.2,0.6l2.6,0.3c4.7,0,9.9,0.7,15.5,2c0.8,0.2,1.6,0.3,2.3,0.3
		c0.8,0,1.4,0.1,1.8,0.3l5.3,1.2c8.6,1.6,16.8,3.7,24.6,6.4c1,0.4,1.8,0.7,2.3,1c0.6,0.3,1.3,0.6,2.2,0.9s8.6,0.5,23.3,0.7
		c2.7,0,4.3,0.1,4.7,0.3c0.6-0.2,3.1-0.3,7.6-0.3c5.5,0.2,8.8,0.4,10,0.6l1.5-0.3l1.5,0.3l14.1-0.3l1.8,0.3l21.7,0.6l7.6-0.3
		c11.5,0,17.8-0.1,18.7-0.3c4.9-10.7,9.6-21.5,14.1-32.2c8.6-20.5,15.2-35.2,19.9-44.2l0.3-0.9c1.9-5.1,4.3-8,7-8.8l1.2-0.6
		c4.5,0,6.7,1.9,6.7,5.6c-0.4,2-1.3,4.1-2.6,6.3c-1.4,2.2-2.3,3.9-2.8,4.8c-0.5,1-1,2-1.6,3.2c-8.4,15.4-16.2,31.4-23.4,48l-3.8,7.6
		c-1.4,3.3-2.5,5.7-3.4,7c-0.9,1.4-1.3,2.7-1.3,4.1c34,0.4,51.6,0.7,53,0.9l3.5-0.3l2,0.3c15.8,0,28.5,0.1,38.2,0.3
		c9.7,0.2,22.5,0.3,38.5,0.3c71.8,0,130.1-0.1,174.8-0.3l5.9,0.3l4.1-0.6c19.1-0.2,29.7-0.4,31.6-0.6h41.6c1.6,0,2.8,0,3.7-0.1
		c0.9-0.1,1.7-0.2,2.5-0.4l3.8,0.3c1.6-0.2,4-0.3,7.3-0.3l11.1-0.3c6.8,0,11.8-0.1,14.8-0.3c3-0.2,7.4-0.5,13-0.9
		c1.8,0,3,0.5,3.8,1.6c0.8,1.1,1.2,2.2,1.2,3.4c-0.6,3.3-2.5,5-5.9,5c-1,0-1.9,0-2.6-0.1c-0.8-0.1-1.6-0.2-2.3-0.4l-22.3-0.3
		l-4.7-0.3l-2.3-0.3l-6.7,0.3c-2.9,0-5-0.1-6.1-0.3l-3.8,0.3l-9.4-0.6l-2.6,0.3l-6.7-0.3c-20.5,0-31.1-0.1-31.9-0.3l-3.8,0.3
		c-0.8-0.2-2.2-0.3-4.4-0.3c-220.4,0-331.8-0.1-334.4-0.3c-1.2,0.2-3.6,0.3-7.3,0.3c-1.6,2.9-3.1,6.1-4.5,9.5
		c-1.5,3.4-3.1,7.2-4.8,11.3c-2.5,5.5-5,11.1-7.3,17l-11.4,26.1c-0.2,0.8-0.4,1.3-0.7,1.6c-0.3,0.3-0.4,0.8-0.4,1.6
		c-1.2,1.8-2,3.7-2.6,5.9l-1.2,2.9c-4.1,10.3-8,20.5-11.7,30.3c-3.7,9.9-7.3,19.2-10.8,28c-3.5,8.8-5.8,16.3-6.7,22.5l-2.9,10.5
		C608,880.7,606,882.2,603.5,882.2z M551.9,818.1h-1.2c-0.4,0-0.7-0.1-0.9-0.3c-0.2-0.2-0.4-0.3-0.6-0.3c-1.2,0-2-0.1-2.5-0.4
		c-0.5-0.3-1-0.8-1.5-1.5c-0.5-0.7-1-1.3-1.5-1.9c-0.5-0.6-0.9-1.1-1.3-1.6c-0.4-0.5-0.6-1-0.6-1.6c0-0.6-0.1-1.7-0.3-3.2
		c0-2.7,0.3-5.5,0.9-8.2c3.5-14.1,8-27.3,13.5-39.8l0.9-1.5c3.7-8.2,6.8-12.3,9.4-12.3c3.7,0,5.6,1.6,5.6,4.7c0,0.8-0.1,1.4-0.4,1.9
		c-0.3,0.5-0.5,1-0.7,1.6c-1,3.3-3,7.9-6.1,13.8c-1.6,3.1-3,6.6-4.4,10.5l-0.9,2.3c-2.5,5.7-3.9,9-4,10c-0.1,1-0.2,1.9-0.4,2.6
		c-1.8,3.9-2.6,7.7-2.6,11.4c0,0.6,0.1,1.1,0.3,1.5c0.2,0.4,0.4,0.7,0.6,0.9c0.2-0.2,0.4-0.3,0.7-0.4c0.3-0.1,0.8-0.3,1.6-0.6
		c0.8-0.3,1.4-0.7,1.8-1.3c1.2-0.4,2.2-1.1,3.2-2c3.9-2.3,7.3-5.1,10.2-8.2l5-4.4c2.9-2.5,5.9-5.4,8.8-8.5l5.6-5.6
		c2.9-3.3,5.3-5.8,7-7.3l0.3-0.6c0.6-0.8,1.3-1.6,2.2-2.3c0.9-0.8,1.7-1.7,2.5-2.6c1.4-1.8,2.9-3.3,4.7-4.7c0.8-0.8,1.5-1.8,2.2-2.9
		c0.7-1.2,1.6-2.3,2.8-3.5l15.5-17.6c0.6-1.4,1.4-2.5,2.3-3.5c3.5-3.5,6.4-7,8.8-10.5c1.6-2.1,3.2-4.1,4.8-6c1.7-1.9,3.3-3.9,4.8-6
		c0.6-0.8,1.1-1.4,1.5-1.9c0.4-0.5,0.8-1.1,1.3-1.9c0.5-0.8,1.1-1.5,1.8-2c0.7-0.6,1.6-1.7,2.8-3.2c0.6-1,1.3-1.9,2-2.6
		c1.4-1.8,2.2-3,2.6-3.8c0.4-0.8,0.9-1.5,1.5-2c1.6-1.2,2.4-2.1,2.6-2.9c0.8-1.4,1.5-2.4,2-3.1c0.6-0.7,1.1-1.2,1.5-1.6
		c3.1-4.5,5.7-7.9,7.6-10.2c3.3-4.1,6.2-8.3,8.8-12.6c0.4-0.6,1-1.2,1.8-1.9c0.8-0.7,2.7-3.4,5.9-8.1c0.4-0.2,0.6-0.4,0.7-0.7
		c0.1-0.3,2.5-4,7.2-11c0.8-0.8,1.2-1.3,1.3-1.6c0.1-0.3,0.7-0.6,1.9-1c1.4,0,2.5,0.3,3.5,1c1,0.7,1.6,1.6,1.8,2.8
		c0,1.2-0.4,2.2-1.2,2.9l-5.9,7.3c-3.9,4.7-8,9.9-12.3,15.5c-1.4,2.3-3.4,5.2-6.1,8.5l-2.6,3.5c-1.8,1.8-2.8,2.9-3.2,3.5
		c-1.4,2.7-2.8,4.9-4.4,6.4c-1.2,1-3.1,3.4-5.9,7.3l-4.1,5.3c-1,1-1.7,1.8-2,2.3c-0.4,0.6-1,1.5-1.8,2.6c-0.6,0.2-1.1,0.7-1.5,1.5
		c-2.2,3.1-4.5,6.1-7,9.1l-5,6.4c-0.8,1-1.7,1.9-2.6,2.6l-3.2,4.7l-9.1,11.1c-2.5,3.3-4.2,5.4-5.1,6.3c-0.9,0.9-2.1,2.4-3.7,4.5
		l-2.6,3.2c-1.6,2.3-3.3,4.5-5.3,6.4c-1.6,1.6-4.4,4.9-8.5,10l-7,7.9c-1.4,2-2.9,3.7-4.7,5.3c-1.4,1.8-2.8,3.4-4.4,5
		c-2.5,2.5-4.3,4.4-5.3,5.6c-1,1.2-2,2.3-3.1,3.4c-1.1,1.1-2.2,2.2-3.2,3.4c-1.1,1.2-2.1,2.2-3.1,3.2c-8.4,7-14.3,11.3-17.6,12.9
		L551.9,818.1z M575.1,738.7c-2,0-3.8-0.5-5.4-1.6c-1.7-1.1-2.7-2.1-3.1-3.1c-0.4-1-0.7-1.9-0.9-2.6c0.2-1.8,0.9-3.5,2.2-5.3
		c1.3-1.8,2.4-2.7,3.4-2.8c1-0.1,1.7-0.2,2-0.4c4.7,0,7.6,1.7,8.8,5c0.4,1,0.6,1.9,0.6,2.6c0,2-0.6,3.7-1.9,5.3
		C579.5,737.4,577.6,738.3,575.1,738.7z M620.1,816.6l0.9-1.5c0.8-1,1.3-1.9,1.5-2.9c0.2-1,0.4-1.9,0.6-2.6
		c5.9-13.1,11.1-25.6,15.8-37.6c4.7-12,9.9-24.2,15.5-36.5l7-17l2.6-5.9c0.4-0.4,0.6-1,0.6-1.8l-1.8-0.3c-49.4,0-79.2,0.2-89.3,0.6
		v0.3c1.6,1,2.8,1.7,3.8,2l5.3,3.5c13.1,10.2,21.9,20.1,26.5,29.7c4.6,9.7,7.9,20,9.8,30.9c0,3.1,0.2,5.5,0.6,7
		c0.4,2.3,0.6,4.8,0.6,7.3c0.2,0.8,0.3,1.8,0.3,2.9v3.2l0.3,1.2c-0.2,2.2-0.3,4.4-0.3,6.7c0,4.1-0.2,7.6-0.6,10.5H620.1z"/>
	<path id="signature-5" class="st0" d="M814.9,882.2l-1.2-0.3c-3.7-1.4-5.6-3.6-5.6-6.7c0-2.3,0.5-5,1.5-7.9c0.6-1.6,1-3,1.3-4.4
		c0.3-1.4,0.6-2.5,1-3.5c0-2.3,0.5-4.5,1.5-6.4v-1.2l2.9-13.8c0.4-1.4,0.6-2.5,0.7-3.5c0.1-1,0.1-1.8,0.1-2.3c1-6.8,1.6-12,1.8-15.5
		l0.6-5c0-0.6-0.1-1-0.3-1.2l0.6-3.2l-0.3-2.3c0.2-0.2,0.3-0.6,0.3-1.2c0-4.9-0.1-7.9-0.3-9.1l0.3-3.2l-0.3-2
		c-0.4-1.8-0.6-3.7-0.7-5.9c-0.1-2.1-0.4-4.2-1-6.1v-2l-1.5-5c-4.5-19.9-17-36-37.5-48.3c-0.2,0-0.4-0.1-0.6-0.3
		c-0.2-0.2-0.5-0.3-0.9-0.3l-4.7-2.6c-7.6-4.3-14-6.7-19-7.3c-3.3,0.2-8,0.3-14.1,0.3c-1.2,0.2-6.6,0.3-16.4,0.3l-5.3,0.6
		c-8.2,0-16.3,0.2-24.3,0.6h-4.4l-2.9,0.3l-2.9-0.3l-1.5,0.3c-6.3,0-10.8,0.1-13.8,0.3l-5.6-0.3l-5,0.3c-2.5-0.4-5.2-0.6-7.9-0.6
		c-1.8-0.6-4.1-0.9-7-0.9c-1.6-0.6-2.9-1.1-4.1-1.5c-1.2-0.4-2.2-1.2-3.2-2.3c-1-1.2-1.5-2.4-1.5-3.8c0.2-1.9,0.6-3.7,1.2-5.3
		c0.8-2.5,4-4.3,9.7-5.3l3.8-0.9h1.8c2-0.6,4.2-0.9,6.6-1c2.4-0.1,4.7-0.4,6.9-1l2.6-0.3c6,0,12.1-0.3,18.2-0.9l2.9,0.3
		c0.6-0.2,2.8-0.3,6.7-0.3l15.8,0.6c0.8,0.2,1.6,0.3,2.5,0.3s1.8,0.1,2.8,0.3c2.1,0.4,4.3,0.7,6.6,0.9c2.2,0.2,4.3,0.5,6.3,0.9
		l4.1,0.6l6.7,1.5c8.2,1.4,15.9,3.4,23.1,6.1l2,0.6c1.8,1,3.2,1.6,4.4,1.8l21.4,0.3c2.1,0,3.7,0.1,4.7,0.3c0.6-0.2,3.1-0.3,7.6-0.3
		c5.5,0.2,8.8,0.4,10,0.6l1.5-0.3l1.5,0.3l14.1-0.3c1.2,0.2,3.2,0.3,6,0.4c2.8,0.1,5.5,0.1,8.1,0.1c3.9,0,7,0.1,9.4,0.3l7.6-0.3
		h15.5c1.2,0,2.2-0.1,3.2-0.3c3.7-8.2,7.2-16.4,10.5-24.6c10.1-24,18-41.3,23.4-51.8l0.6-1.8c1.8-4.5,4-7.1,6.7-7.9l1.2-0.6
		c1.2,0,2.2,0.1,3.1,0.4c0.9,0.3,1.7,0.9,2.5,1.8c0.8,0.9,1.2,2,1.2,3.4c-0.4,2.2-1.2,4.1-2.5,5.9c-1.3,1.8-2.2,3.3-2.8,4.7
		c-0.6,1.4-1.2,2.6-1.8,3.8c-8.4,15.4-16.2,31.4-23.4,48c-2.5,4.5-4,7.5-4.4,9.1c-1.2,2.5-2.2,4.4-2.9,5.7c-0.8,1.3-1.2,2.6-1.2,4
		l0.3,0.3c33.8,0.2,51.3,0.4,52.7,0.6l3.5-0.3c1.4,0.2,6,0.3,13.8,0.3c6.4,0.4,28.1,0.6,65,0.6c71.8,0,130.1-0.1,174.8-0.3l5.9,0.3
		c2.7-0.4,7-0.6,12.9-0.6l22.8-0.6h41.6c1.4,0,2.5,0,3.5-0.1c1-0.1,1.9-0.2,2.6-0.4l3.8,0.3l5.3-0.3c11.7-0.2,18.5-0.4,20.5-0.6
		c1.9-0.2,4-0.3,6.1-0.3l14.3-0.6c1.8,0.2,3,0.8,3.8,1.8c0.8,1,1.2,2,1.2,3.2c-0.2,3.3-2.2,5-5.9,5c-1,0-2-0.1-3.2-0.3
		c-1.2-0.2-7.1-0.4-17.9-0.6c-4.9,0-8,0-9.2-0.1c-1.3-0.1-2.6-0.2-4-0.4l-4.4,0.3l-8.5-0.3l-3.8,0.3c-1-0.2-4.1-0.4-9.4-0.6
		l-2.6,0.3l-6.7-0.3c-20.5,0-31.1-0.1-31.9-0.3l-3.8,0.3c-1.4-0.2-2.8-0.3-4.4-0.3H897.4l-3.8-0.3c-1.2,0.2-3.6,0.3-7.3,0.3
		c-1.6,2.9-3,6-4.4,9.1c-1.6,4.1-3.4,8.3-5.6,12.6l-3.2,7c-2.3,6.1-7.3,17.8-14.9,35.1c0,0.8-0.2,1.4-0.6,1.9
		c-0.4,0.5-0.6,0.9-0.6,1.3c-0.6,1-1,2.1-1.3,3.4c-0.3,1.3-0.9,2.7-1.9,4.2c-0.6,1-1.7,3.7-3.4,8.1c-1.7,4.4-3.4,8.6-5.1,12.7
		l-1.5,5c-2.7,6.2-5.3,12.7-7.6,19.3l-5.9,15.8l-5.9,17.3c-0.6,4.5-1.5,8.2-2.6,11.1l-0.9,3.2C819.6,880.7,817.6,882.2,814.9,882.2z
		 M770.6,855h-1.2c-1,0-1.7-0.2-2-0.6c-0.4-0.4-0.7-0.6-1-0.7c-0.3-0.1-0.9-0.6-1.9-1.6c-1.2-0.6-1.8-2.2-1.8-5c0-2,0.1-3.3,0.3-4
		c0.2-0.7,0.3-1.7,0.3-3.1c0-0.4,0.4-2,1.2-4.7c0.8-2.7,1.6-5.4,2.3-7.9c0.2-1.2,0.4-2,0.6-2.6c0.2-0.6,0.3-1,0.4-1.3
		c0.1-0.3,0.2-0.6,0.3-1c0.1-0.4,0.3-0.8,0.6-1.2c0.3-0.4,0.5-0.9,0.6-1.5c0.1-0.6,0.1-1,0.1-1.2c0.6-1.8,1.3-3.4,2-5
		c1.6-4.7,2.3-7.2,2.3-7.6c1-2.3,2-4.7,3.1-7c1.1-2.3,1.7-3.9,1.9-4.7c0.2-0.8,0.3-1.4,0.3-1.8l1.5-3.2c0.2-0.2,0.4-0.6,0.6-1.2
		c0.2-0.6,0.4-1.2,0.7-1.9c0.3-0.7,0.5-1.4,0.7-2c0.2-0.7,0.4-1.3,0.7-1.8c0.3-0.5,0.6-1.2,1-2.2c1.4-3.7,2.8-7.3,4.4-10.8
		c0.2-0.4,0.3-0.9,0.3-1.5c0.4-0.2,0.8-0.8,1.2-1.8v-1.5c0.6-0.6,0.9-1,1-1.2c0.1-0.2,0.2-0.5,0.3-0.9c0.1-0.4,0.1-0.7,0.1-0.9
		c0-0.2,0.1-0.3,0.3-0.4c0.2-0.1,0.3-0.4,0.4-0.9c0.1-0.5,0.2-0.9,0.3-1.2c0.1-0.3,0.3-0.6,0.6-0.9c0.3-0.3,0.4-0.7,0.4-1.3
		c0-0.6,0.3-1.3,0.9-2.2c0.6-0.9,1.1-1.7,1.5-2.5v-1.2c1.6-2.3,2.3-4,2.3-5c0.2-0.2,0.3-0.4,0.3-0.7s0.3-0.7,0.9-1.3l1.2-3.8
		c0.6-0.6,0.9-1,1-1.2c0.1-0.2,0.1-0.7,0.1-1.5c0.4-0.6,0.7-1.1,1-1.6c0.3-0.5,0.5-1,0.7-1.6c0.6-1.8,1.2-3.2,1.9-4.2
		c0.7-1.1,1-1.9,1-2.3c0-0.5,0.1-0.9,0.4-1.3c0.3-0.4,0.5-0.9,0.7-1.5l2.3-4.4c0-0.4,0-0.7,0.1-0.9c0.1-0.2,0.3-0.5,0.6-0.9
		c0.3-0.4,0.6-0.9,0.9-1.6c0.3-0.7,0.4-1.5,0.4-2.5h-0.6l-0.3,0.6c-1,1-1.5,1.6-1.5,1.8c0,0.2-0.1,0.4-0.3,0.6l-3.5,4.7
		c-0.4,1.2-2.6,4.2-6.7,9.1L773.3,766c-0.6,1-1.3,1.9-2,2.6c-0.8,0.8-1.7,1.8-2.6,3.1c-1,1.3-2,2.6-3.2,4c-1.2,1.4-2.2,2.8-3.2,4.4
		l-3.8,4.1c-2.2,2.5-3.3,4-3.5,4.4c-0.2,0.4-0.5,0.8-1,1.2c-0.5,0.4-0.8,0.8-0.9,1.2c-0.1,0.4-0.3,0.7-0.7,0.9
		c-2.3,2.3-4.5,4.8-6.4,7.3c-0.4,0.4-0.7,0.7-1,0.9c-0.3,0.2-0.5,0.4-0.7,0.6c-0.2,0.2-0.3,0.4-0.4,0.6c-0.1,0.2-0.2,0.4-0.4,0.6
		c-0.2,0.2-0.4,0.4-0.6,0.7c-0.2,0.3-0.5,0.6-0.9,0.9c-0.4,0.3-1.2,1.2-2.3,2.8c-0.6,0.6-1,0.9-1.3,1c-0.3,0.1-0.4,0.2-0.4,0.4v0.3
		l-2,1.5c-3.3,3.3-5.2,5-5.6,5l-0.9,1.2c-0.8,0-1.6,0.4-2.5,1.3c-0.9,0.9-1.5,1.3-1.9,1.3c-0.4,0-0.8,0.2-1.3,0.6
		c-0.5,0.4-1.1,0.7-1.8,1c-0.7,0.3-2,0.4-4,0.4c-1,0.4-1.9,0.6-2.6,0.6c-1,0-2.2-0.6-3.8-1.8c-0.6-0.6-1.3-1.1-2-1.5
		c-1.6-0.4-2.7-2-3.5-5c0-1-0.1-1.6-0.3-1.9c-0.2-0.3-0.3-0.6-0.4-0.9c-0.1-0.3-0.1-0.8-0.1-1.6c0-2.5,0.1-4,0.3-4.4V802
		c0.4-1,0.7-1.9,0.9-2.6c0.2-0.8,0.3-1.8,0.3-2.9c1.2-3.9,2.4-7.7,3.8-11.4c0.6-2.7,1.2-4.5,1.8-5.3l0.3-0.9
		c1.8-2.9,2.6-5.2,2.6-6.7h-0.3c-0.6,0.6-1.3,1.2-2,1.8c-0.8,0.6-1.5,1.3-2,2l-1.5,2.9c-1.4,0-2.4,0.9-3.2,2.6
		c-1.8,1.4-3.2,2.9-4.4,4.7c-0.2,0-0.4,0.1-0.6,0.1c-0.2,0.1-0.3,0.2-0.3,0.4c-2.3,2.3-4.5,4.7-6.4,7c-0.4,0.4-0.8,0.7-1.2,0.9
		c-0.4,0.2-0.7,0.5-0.9,0.9c-1.8,2.2-3.7,4.1-5.9,5.9l-2.6,2.9c-1.8,1.2-3.4,2.5-5,4.1c-4.9,4.9-10.1,8.3-15.5,10.2h-3.5
		c-1.2,0-2.4-0.4-3.8-1.3c-1.4-0.9-2.3-1.9-2.9-3.2c-0.6-1.3-0.9-2.9-0.9-4.8c0-3.5,0.2-6.1,0.6-7.9c2-7.6,3.8-12.7,5.6-15.2
		c0.6-0.8,1-1.5,1.2-2c5.9-12.7,14.4-22.6,25.8-29.9c3.1-1.9,6.7-2.9,10.8-2.9c7.2,0,11.9,3.5,14.1,10.5c0.2,0.6,0.3,1.3,0.4,2
		c0.1,0.8,0.2,1.4,0.4,1.8c0.2,0.4,0.5,0.6,0.9,0.6c0.4-0.8,2.9-3.8,7.6-9.1c1.6-1.6,3-3.2,4.4-5l1.5-2.3c1.2-1.9,2-3.1,2.5-3.5
		c0.5-0.4,0.9-0.7,1.2-1c0.3-0.3,0.6-0.7,0.9-1.3c0.3-0.6,0.7-1.2,1.3-1.8c1.2-1.8,2.9-2.6,5.3-2.6s4,1.2,5,3.5
		c0.2,0.6,0.3,1.3,0.3,2c0,2.7-1,5.7-2.9,8.8c-0.2,0.8-0.5,1.4-0.9,1.8c-1,2.5-2.2,5-3.5,7.3c-0.6,0.8-1.1,1.7-1.5,2.6
		c-0.6,2.2-1.6,4.5-3.1,7.2c-1.5,2.6-3.5,7.3-6,13.9c0,0.8-0.1,1.4-0.4,1.9c-0.3,0.5-1.4,4.2-3.4,11.3c-0.4,0.8-0.6,2-0.6,3.5
		c0,0.6,0.1,1,0.3,1.2h0.6v0.3c0.6-0.6,1.1-1,1.6-1.2c0.5-0.2,1-0.5,1.6-0.9l6.1-4.7l7-6.1l7.3-7.3l8.8-8.8c1.9-2.5,4-4.9,6.1-7.2
		c2.1-2.2,4.2-4.6,6.1-7.2l7.6-8.8c1.8-1.9,3.3-3.9,4.7-5.9l2.3-2.3l5-6.4c6.2-7.6,14.5-18.8,24.9-33.7l5.3-7.3l8.8-13.2
		c3.7-5.3,7.2-10.6,10.5-16.1c2.5-4.1,4.9-6.1,7-6.1c0.8,0,1.8,0.5,3.1,1.5c1.3,1,1.9,2.2,1.9,3.8c0,0.4-0.2,1.3-0.7,2.6
		c-0.5,1.4-1.3,2.8-2.5,4.4v0.3c-1.8,2.9-3.5,5.9-5.1,8.8c-1.7,2.9-3.4,5.8-5.1,8.5c-0.8,2.3-1.7,4.2-2.6,5.6
		c-1,1.4-1.9,2.9-2.6,4.7c-0.2,0.8-0.5,1.5-0.9,2c-2.2,3.5-4,7.2-5.6,11.1c-0.8,1.6-1.3,2.5-1.6,2.9c-0.3,0.4-0.5,0.8-0.6,1.2
		c-0.1,0.4-0.2,0.7-0.4,0.9c-1.2,2.2-2.2,4.4-3.2,6.7c-0.4,0.8-0.8,1.5-1.2,2c-0.4,0.6-0.7,1.1-0.9,1.5c-0.2,0.4-0.3,0.7-0.3,1
		s-0.1,0.5-0.3,0.7c-0.4,1-1.1,2.2-2,3.8v0.9l-0.6,1.2h-0.3v0.3c-0.2,0.2-0.3,0.4-0.3,0.7c0,0.3-0.1,0.6-0.3,1
		c-0.2,0.4-0.4,0.8-0.6,1.2c-0.8,1.2-1.5,2.5-2,4.1c-0.2,0.8-0.4,1.4-0.6,1.9c-0.2,0.5-0.5,0.9-0.9,1.2c-0.4,0.3-0.9,1.7-1.5,4.2
		c-0.4,0.6-0.7,1.1-0.9,1.6c-0.2,0.5-0.3,0.9-0.4,1.2c-0.1,0.3-0.3,0.6-0.7,1c-0.4,0.4-0.6,1.2-0.6,2.3c-0.2,0-0.3,0.1-0.3,0.3h-0.3
		v0.3c-0.4,0.6-0.6,1.1-0.6,1.5c0,0.4-0.1,0.6-0.3,0.7c-0.2,0.1-0.3,0.3-0.3,0.6c0,0.3-0.1,0.6-0.3,1c-0.2,0.4-0.4,0.8-0.6,1.3
		c-0.2,0.5-0.4,0.8-0.6,1v0.9l-1.2,1.5c-0.2,0.8-0.4,1.6-0.6,2.5c-0.2,0.9-0.7,2.2-1.6,3.8c-0.9,1.7-1.4,2.8-1.5,3.4
		c-0.1,0.6-0.2,1-0.4,1.2c-0.2,0.2-0.3,0.5-0.4,0.9c-0.1,0.4-0.2,0.8-0.3,1.2c-0.1,0.4-0.2,0.7-0.4,0.9c-0.2,0.2-0.4,0.5-0.6,0.9
		l-0.3,1.8c-0.4,1.4-1.1,2.7-2,4.1c0,1-0.1,1.7-0.3,2c-0.2,0.4-0.5,1-0.9,1.8c-0.8,1.6-1.2,2.9-1.2,4.1l-1.5,2.9v0.9l-2.9,7.6
		l-1.5,3.5v1.8c-0.2,0.4-0.4,0.7-0.6,0.9c-0.2,0.2-0.3,0.4-0.4,0.7c-0.1,0.3-0.1,0.7-0.1,1.2c0,0.5-0.1,0.9-0.1,1.3
		c-0.1,0.4-0.8,2.1-2.2,5.3l-0.3,2.6l-1.8,6.1c-0.2,0.2-0.3,0.5-0.3,0.9c0,0.4-0.1,0.8-0.3,1.2v1.2c-0.8,2.5-1.3,5.4-1.5,8.5
		l0.6,0.3l2.6-2.3c1.6-1.2,3-2.5,4.4-4.1l3.5-3.5c1.6-2,3.3-4,5.3-6.1c1.9-2.2,4.4-5.1,7.3-8.8l3.5-4.4
		c10.7-14.2,18.3-24.7,22.8-31.3c0.6-1,1.4-2,2.5-3.2c1.1-1.2,1.8-2.2,2.2-3.1c0.4-0.9,0.8-1.5,1.2-1.9c3.1-4.7,5.7-8.2,7.6-10.5
		c0.8-1.2,1.5-2.3,2-3.5c0.6-1.2,1.2-2.2,1.8-3.2c0.4-0.2,0.8-0.5,1.2-1c0.4-0.5,1.2-1.9,2.3-4.2l2.3-2.6l11.4-17.6l9.7-15.8
		c4.7-7,8.2-12.6,10.5-16.7c1.2-2.3,2.5-4.6,4.1-6.7l2.6-4.1l2.9-5.9c2.9-4.1,4.4-6.6,4.4-7.6c0-0.2,0.1-0.4,0.3-0.6
		c0.2-0.2,0.3-0.3,0.4-0.4c0.1-0.1,0.2-0.4,0.4-0.9c0.2-0.5,0.5-1,0.9-1.6c1-1.9,1.5-3.1,1.5-3.5c1-2.9,2.7-4.4,5.3-4.4
		c0.8,0,1.6,0.2,2.5,0.7c0.9,0.5,1.6,1.2,2,2c0.5,0.9,0.7,1.6,0.7,2.2c0,1.4-0.7,2.9-2,4.7c-0.6,0.4-1,0.8-1.2,1.2
		c-0.2,0.4-0.3,0.8-0.4,1.2c-0.1,0.4-0.9,1.6-2.5,3.5c-3.1,4.5-4.8,7-5,7.6c-0.2,0.6-0.8,1.5-1.9,2.8c-1.1,1.3-1.6,2-1.6,2.3
		s-0.7,1.4-2,3.4c-0.8,0.8-2,2.6-3.8,5.6l-3.2,5.3c0,0.2-0.1,0.4-0.4,0.6c-0.3,0.2-0.6,0.6-0.9,1.3c-0.3,0.7-0.6,1.3-1,1.9
		c-7,10.5-12,18.4-14.9,23.4c-3.7,4.9-6.4,9.1-8.2,12.6l-15.2,23.1c-0.4,0.6-0.9,1.2-1.6,1.9c-0.7,0.7-1.3,1.8-1.9,3.4l-1.5,2.3
		l-5.3,7.3c-1,1.4-1.7,2.5-2.2,3.5c-0.5,1-1.1,2-1.9,2.9c-5.7,7.6-8.8,12.2-9.4,13.8c-2.7,4.1-5.8,8.3-9.1,12.6
		c-2.3,2.9-4.6,6-6.9,9.1c-2.2,3.1-4.5,6.1-6.9,9.1l-5.3,6.7c-0.4,0.6-0.9,1.1-1.5,1.6c-0.6,0.5-1.1,1-1.5,1.6
		c-2,2.3-4.1,4.5-6.4,6.4c-0.6,0.4-1.2,0.9-1.9,1.5c-0.7,0.6-1.6,1.2-2.8,1.8c-0.8,0-1.6,0.2-2.3,0.6L770.6,855z M661.7,809.3
		c0.8-0.6,1.8-1.1,2.9-1.5c2.5-1,6-3.1,10.2-6.4l1.5-1.2l6.1-5.6c6.2-5.3,12.2-10.9,17.9-17c1-1.2,2-2.2,3.2-3.2
		c0-1.6-0.3-2.9-0.9-4.1l-0.3-0.3c-0.6-2.1-1.5-3.9-2.8-5.1c-1.3-1.3-3.3-2-6-2.2c-0.6,0.4-1.3,0.6-2,0.6c-2.2,0-4.5,1-7,2.9
		c-8.2,5.1-14.7,13-19.6,23.7c0,0.2-0.4,0.7-1.2,1.5c0,0.8-0.1,1.5-0.3,2c-2.3,4.5-3.5,8.7-3.5,12.6l0.3,2.9L661.7,809.3z
		 M831.5,816.6l0.6-1.5c0-0.4,0.2-0.7,0.7-1c0.5-0.3,0.9-1.2,1.2-2.6c0.3-1.5,0.8-3,1.6-4.5c1.9-3.7,3.5-7.4,4.7-11.1l1.5-3.5
		c4.1-9.2,8-18.4,11.7-27.8l10.2-24.6c2.1-4.7,5.2-11.8,9.1-21.4l2.6-5.9c0.4-0.4,0.6-1,0.6-1.8h-0.3c-0.4-0.2-10.2-0.3-29.6-0.3
		c-30.1,0-50.5,0.2-61.2,0.6v0.3l3.8,2.3c3.1,1.6,5.4,3,6.7,4.4l2.3,2c4.3,3.1,8,6.6,11.1,10.5c0.2,0.4,0.4,0.6,0.7,0.7
		c0.3,0.1,0.5,0.2,0.7,0.4c7.6,9.4,13.4,20.6,17.3,33.7c0.8,2.5,1.4,5.3,1.8,8.2c0.6,1.8,0.9,3.4,1,4.8c0.1,1.5,0.2,2.9,0.4,4.4
		c0.2,1.5,0.4,2.8,0.6,4v5c0.2,0.8,0.3,1.8,0.3,2.9v3.2l0.3,1.2c-0.2,2.2-0.3,4.4-0.3,6.7c0,4.1-0.2,7.6-0.6,10.5H831.5z"/>
	<path id="signature-6" class="st0" d="M879.3,821.9l-1.5-0.3c-1.9-0.6-3.5-1.3-4.7-2c-1.2-0.8-2.1-2.1-2.8-4c-0.7-1.9-1-3.9-1-6
		c0.4-2.5,0.6-5,0.6-7.3c2.7-10.5,6.7-22.2,12-34.8c2.3-5.1,5-7.6,7.9-7.6c1,0,2,0.5,3.2,1.5c1.2,1,1.8,2.2,1.8,3.5
		c0,2.3-1.3,5.4-3.8,9.1l-0.3,0.9c-2.3,3.3-3.8,5.6-4.2,6.7c-0.5,1.2-1.1,2.3-1.9,3.5c0,0.2-0.1,0.4-0.3,0.6
		c-0.2,0.2-0.4,0.4-0.6,0.6c-2.3,5.7-3.7,9.4-4.1,11.1c-1.6,3.5-2.3,7.5-2.3,12l0.3,3.2c0.4,0.4,1.1,0.6,2,0.6
		c0.6-0.4,1.4-0.7,2.3-1c1-0.3,2.3-1.2,4.1-2.8l1.5-1.2c1.9-1.4,3.5-3,4.7-5c0.6-0.8,1.4-1.5,2.3-2.2c1-0.7,1.8-1.5,2.5-2.3
		c0.7-0.9,1.4-1.9,2.2-3.1c3.3-4.3,5.3-7.1,5.9-8.5c0-0.2,0-0.4,0.1-0.6c0.1-0.2,0.4-0.5,0.9-0.9c0.5-0.4,1.4-2.1,2.8-5.3
		c0.2-0.6,0.5-1.3,1-2c0.5-0.8,0.9-1.8,1.3-2.9l-3.8-2c-2.7-2.1-4.5-3.7-5.3-4.7c-4.7-4.7-7-10.5-7-17.6c0-5.1,0.9-8.5,2.6-10.2
		l0.6-1.8c0.6-1.4,1.2-2.2,1.9-2.6c0.7-0.4,1.4-1.1,2-2c0.7-1,1.6-1.7,2.6-2c1.1-0.4,1.8-0.7,2.2-0.9c1-1,2.2-1.5,3.7-1.6
		c1.5-0.1,2.6-0.3,3.4-0.7c1.6,0,2.8,0.2,3.8,0.6c1,0.4,1.8,0.6,2.5,0.7c0.7,0.1,1.4,0.3,2.2,0.7c4.9,3.5,7.3,8.5,7.3,14.9
		c0,2-0.3,3.9-0.9,5.9c0,1-0.1,1.8-0.3,2.3c-1.2,5.5-2.2,9.2-3.2,11.1c-0.4,0.6-0.6,1.3-0.6,2c1,0.4,2,0.6,3.2,0.6
		c3.3,0,6.6-0.7,10-2c0.8-0.4,1.8-0.7,2.9-0.9c1.8,0,3.2,0.6,4.2,1.9c1.1,1.3,1.7,2.7,1.9,4.2c0,1.2-0.5,2.3-1.5,3.4
		c-1,1.1-1.9,1.7-2.6,1.9c-0.8,0.2-1.7,0.3-2.6,0.3c-3.7,1-7.4,1.5-11.1,1.5l-2,0.3c-2.3-0.4-4.6-0.6-6.7-0.6l-2.9,5.3
		c-6.6,13.1-15.2,24-25.8,32.8c-2.3,1.6-4.9,3.1-7.6,4.7c-0.6,0-1.4,0.2-2.3,0.6C880.9,821.7,880.1,821.9,879.3,821.9z M915.3,764.8
		c1.8-3.3,2.6-7.7,2.6-13.2c0-2.9-0.6-5.3-1.8-7H915c-0.2,0.4-0.7,0.7-1.5,0.9c-0.8,0.2-1.7,0.8-2.6,1.8c-1.8,2-2.6,4.3-2.6,7
		c0,3.5,1.4,6.3,4.1,8.5c0.4,0.2,0.7,0.5,1,0.9C913.7,764,914.3,764.4,915.3,764.8z M936.7,823.9h-0.9c-4.1-1.4-6.7-4.2-7.9-8.5
		c-0.4-1.2-0.6-2.4-0.7-3.8c-0.1-1.4-0.1-2.8-0.1-4.4v-1.8l0.9-5.3c1-6.6,3.5-15,7.6-25.2l1.2-2.6c1.6-4.5,3-7.2,4.4-8.2
		c1.4-1,2.6-1.5,3.8-1.5h0.6c2.9,1.2,4.4,2.9,4.4,5.3s-0.7,4.8-2,7.5c-1.4,2.6-2.2,4.4-2.3,5.4c-3.7,8-5.7,14.3-5.9,18.7
		c-0.6,1.8-0.9,3.7-0.9,5.9c0,1.6,0.2,2.9,0.6,4.1c0.2,0.2,0.7,0.3,1.5,0.3c0.4-0.6,0.9-1,1.6-1.2c0.7-0.2,1.2-0.4,1.6-0.6
		c3.9-3.3,6-5.2,6.3-5.6c0.3-0.4,0.6-0.8,1-1.2c3.7-3.3,6.9-7,9.7-11.1l3.5-5.9c1-1,1.5-1.9,1.5-2.6l-1.8-1.5
		c-3.1-2.3-4.9-4.2-5.3-5.6c0-0.6-0.1-1.1-0.3-1.5c-0.2-0.4-0.4-0.7-0.6-1c-0.2-0.3-0.3-0.7-0.4-1.3c-0.1-0.6-0.2-1.3-0.4-2
		c-0.4-0.4-0.6-1.9-0.6-4.4c0-2.1,0.1-3.4,0.3-3.8c0.2-0.4,0.3-1.1,0.4-2c0.1-1,0.4-1.8,0.9-2.3c0.5-0.6,0.8-1.2,1-1.8
		c0.2-0.6,0.8-1.4,1.8-2.5c1-1.1,2-2.2,3.2-3.4c1,0,1.8-0.3,2.5-0.9c0.7-0.6,1.7-1,3.1-1.2c3.3,0,6,0.6,8.2,1.8l1.5,1.8
		c1.4,1,2.1,2,2.3,2.9c0.2,1,0.5,1.7,0.9,2.2c0.4,0.5,0.6,2.5,0.6,6c-0.4,4.5-1,7.6-1.8,9.4l-0.6,2.3c0.4,0,0.6,0.1,0.6,0.3
		c1.2,0,2.2-0.2,3.2-0.6l6.1-1.8c5.3-2.7,8.6-4.9,10-6.6c1.4-1.7,3-2.5,5-2.5c1.4,0,2.6,0.5,3.8,1.6c1.2,1.1,1.9,2.6,2.3,4.5
		c0,1.2-0.3,2.2-0.9,3.1c-0.6,0.9-1.1,1.6-1.6,2c-0.5,0.5-0.9,0.7-1.3,0.7c-0.4,0-0.7,0.1-0.9,0.3c-6.4,4.3-13.8,7.5-22,9.7
		c-1.2,0.4-2.3,0.6-3.4,0.7c-1.1,0.1-1.9,0.1-2.5,0.1l-2.3-0.3c-1.2,0.4-1.9,1-2.2,1.8c-0.3,0.8-0.5,1.4-0.7,1.8
		c-3.5,6.6-7.6,12.9-12.3,18.7c-0.6,1-1.2,1.9-1.9,2.6c-0.7,0.8-1.4,1.5-2,2.2c-0.7,0.7-1.3,1.4-1.9,2.2c-3.7,3.7-5.8,5.7-6.3,5.9
		c-0.5,0.2-0.9,0.6-1.3,1.2c-0.4,0.6-1.2,1-2.3,1.2l-0.9,0.3c-0.8,0.6-1.8,1.1-2.9,1.5C939.9,823.6,938,823.7,936.7,823.9z
		 M970.9,769.8c0.8-1.9,1.2-4.1,1.2-6.4c0-1.2-0.2-1.9-0.6-2.3c-1.6,0.6-2.3,2.2-2.3,5C969.2,768.1,969.7,769.4,970.9,769.8z"/>
</g>
</svg>
